<svg width="28" height="33" viewBox="0 0 28 33" fill="none" xmlns="http://www.w3.org/2000/svg">
<path d="M22.7069 17.6307C22.67 13.6324 26.0647 11.6872 26.2199 11.5966C24.2974 8.86366 21.3175 8.49026 20.2703 8.46048C17.7676 8.20369 15.3399 9.92062 14.065 9.92062C12.7646 9.92062 10.8014 8.48529 8.68543 8.52747C5.96257 8.56841 3.41529 10.1055 2.01823 12.4923C-0.864945 17.359 1.28535 24.5108 4.04766 28.4446C5.42945 30.3712 7.04408 32.5223 9.15748 32.4466C11.2251 32.3635 11.9974 31.1614 14.4925 31.1614C16.9647 31.1614 17.69 32.4466 19.8453 32.3983C22.0644 32.3635 23.4614 30.463 24.7948 28.519C26.3917 26.3108 27.0329 24.1362 27.0584 24.0245C27.0062 24.0071 22.7489 22.4229 22.7069 17.6307Z" fill="#403F3D"/>
<path d="M18.6353 5.87268C19.7474 4.51675 20.5082 2.67205 20.297 0.800049C18.6875 0.86952 16.6746 1.88554 15.5155 3.21169C14.49 4.38029 13.5739 6.29571 13.8105 8.097C15.6185 8.2285 17.4749 7.20752 18.6353 5.87268Z" fill="#403F3D"/>
</svg>
